<svg id="Layer_1" data-name="Layer 1" xmlns="http://www.w3.org/2000/svg" viewBox="0 0 1857.73 1615.13"><defs><style>.cls-1{fill:#48c1ec;}.cls-2{fill:#fcfdfd;}</style></defs><rect class="cls-1" width="1857.73" height="1615.13"/><path class="cls-2" d="M969.55,455.25c.93-2.88-1.25-6.44,1.92-8.83,1.49.06,3,.17,4.48.17q143.88,0,287.76,0c5.15,0,10.31.19,15.47.29,0,4.66-.08,9.32-.08,14q0,338.24,0,676.46c0,8.63.67,7.42-7.49,7.43-30,0-59.95-.07-89.92.13-4.71,0-6.21-1.17-6.2-6.05q.18-190.84.1-381.7a24.82,24.82,0,0,1,0-3c.47-3.91-1.12-5.13-5.09-5.1-22.81.17-45.63.08-68.44.08-8.33,0-16.65.11-25,0-2.76,0-4,.86-3.82,3.71.14,2.49,0,5,0,7.49q0,188.85,0,377.7c0,6.75,0,6.76-6.9,6.76H876.62c-7.38,0-7.38,0-7.39,7.15q0,22.74,0,45.46c0,1.62.2,3.29-.91,5.07-8.64-6.09-15.8-13.76-23.68-20.56-10.93-9.44-21.62-19.17-32.18-29-3.42-3.18-5.55-2-8.37.6q-25.31,22.93-50.79,45.67c-1.21,1.09-2.35,2.35-4.09,2.67-1.46-1.54-1.1-3.44-1.1-5.23q0-369.94-.15-739.91c0-4.8,1.28-6.23,6.14-6.21q54.45.28,108.9,0c4.83,0,6.54,1.07,6.53,6.34q-.18,291.77,0,583.54c0,1.5.11,3,0,4.5-.21,2.73.82,3.86,3.7,3.85q47.19-.23,94.39-.29c2,.29,2.12-1.09,2.14-2.49,0-2.16.05-4.32.05-6.49q0-289.1,0-578.21C969.7,459.24,969.6,457.24,969.55,455.25ZM1175.4,649.34c1-2,.64-4.25.64-6.38q0-43.19,0-86.35c0-6.55,0-6.55-6.64-6.57q-46.39-.15-92.8-.26c-1.11,0-2.88-.72-3.09,1.46q-.1,52.85-.21,105.68c0,1.47-.16,3.19,2.2,3,6,.09,11.92.26,17.89.26q38.8,0,77.61-.12c1.87,0,5.16,1.31,4.41-2.95Zm-51,44.92v-.08c-15.48,0-31,.07-46.42-.06-3.33,0-5,.74-4.68,4.44a73.2,73.2,0,0,1,0,11.47c-.34,4,1.2,5.08,5.09,5,16.47-.2,32.94-.08,49.42-.08,14.31,0,28.62-.13,42.92.07,4.18.05,5.71-1.39,5.39-5.51a67.77,67.77,0,0,1,0-10.47c.29-3.73-1.07-4.93-4.81-4.89C1155.67,694.36,1140,694.26,1124.39,694.26Z"/></svg>